<svg width="20" height="20" viewBox="0 0 20 20" fill="none" xmlns="http://www.w3.org/2000/svg">
<path d="M10.0002 1.25C10.6633 1.25 11.2992 1.51339 11.768 1.98223C12.2368 2.45107 12.5002 3.08696 12.5002 3.75V6.25H7.50023V3.75C7.50023 3.08696 7.76363 2.45107 8.23247 1.98223C8.70131 1.51339 9.33719 1.25 10.0002 1.25V1.25ZM13.7502 6.25V3.75C13.7502 2.75544 13.3551 1.80161 12.6519 1.09835C11.9486 0.395088 10.9948 0 10.0002 0C9.00567 0 8.05185 0.395088 7.34858 1.09835C6.64532 1.80161 6.25023 2.75544 6.25023 3.75V6.25H4.20023C3.75133 6.2501 3.31735 6.41125 2.97718 6.70417C2.63701 6.99709 2.41322 7.40233 2.34648 7.84625L1.06274 16.4125C0.99622 16.857 1.02636 17.3106 1.1511 17.7423C1.27584 18.1741 1.49224 18.5739 1.78554 18.9144C2.07885 19.255 2.44215 19.5282 2.85067 19.7155C3.25919 19.9029 3.70331 19.9999 4.15273 20H15.8465C16.296 20.0001 16.7403 19.9032 17.149 19.7159C17.5576 19.5287 17.9211 19.2554 18.2145 18.9149C18.508 18.5744 18.7245 18.1745 18.8493 17.7426C18.9741 17.3108 19.0043 16.8571 18.9377 16.4125L17.6527 7.84625C17.586 7.40254 17.3624 6.99747 17.0225 6.70458C16.6826 6.41169 16.2489 6.2504 15.8002 6.25H13.7502ZM12.5002 7.5V9.375C12.5002 9.54076 12.5661 9.69973 12.6833 9.81694C12.8005 9.93415 12.9595 10 13.1252 10C13.291 10 13.45 9.93415 13.5672 9.81694C13.6844 9.69973 13.7502 9.54076 13.7502 9.375V7.5H15.799C15.9486 7.50015 16.0932 7.55397 16.2065 7.65168C16.3198 7.7494 16.3943 7.88452 16.4165 8.0325L17.7015 16.5963C17.7416 16.863 17.7237 17.1353 17.6489 17.3945C17.5742 17.6537 17.4444 17.8937 17.2684 18.0982C17.0924 18.3026 16.8744 18.4667 16.6292 18.5792C16.3841 18.6917 16.1175 18.7499 15.8477 18.75H4.15273C3.88298 18.7499 3.61641 18.6917 3.37123 18.5792C3.12605 18.4667 2.90802 18.3026 2.73205 18.0982C2.55607 17.8937 2.42629 17.6537 2.35155 17.3945C2.27681 17.1353 2.25888 16.863 2.29898 16.5963L3.58399 8.0325C3.6061 7.88473 3.68041 7.74978 3.79347 7.65209C3.90652 7.5544 4.05082 7.50045 4.20023 7.5H6.25023V9.375C6.25023 9.54076 6.31608 9.69973 6.43329 9.81694C6.5505 9.93415 6.70947 10 6.87523 10C7.041 10 7.19997 9.93415 7.31718 9.81694C7.43439 9.69973 7.50023 9.54076 7.50023 9.375V7.5H12.5002Z" fill="white"/>
</svg>
