<svg width="48" height="48" viewBox="0 0 48 48" fill="none" xmlns="http://www.w3.org/2000/svg">
<path d="M24 24C25.1935 24 26.3381 23.5259 27.182 22.682C28.0259 21.8381 28.5 20.6935 28.5 19.5C28.5 18.3065 28.0259 17.1619 27.182 16.318C26.3381 15.4741 25.1935 15 24 15C22.8065 15 21.6619 15.4741 20.818 16.318C19.9741 17.1619 19.5 18.3065 19.5 19.5C19.5 20.6935 19.9741 21.8381 20.818 22.682C21.6619 23.5259 22.8065 24 24 24ZM27 19.5C27 20.2956 26.6839 21.0587 26.1213 21.6213C25.5587 22.1839 24.7956 22.5 24 22.5C23.2044 22.5 22.4413 22.1839 21.8787 21.6213C21.3161 21.0587 21 20.2956 21 19.5C21 18.7044 21.3161 17.9413 21.8787 17.3787C22.4413 16.8161 23.2044 16.5 24 16.5C24.7956 16.5 25.5587 16.8161 26.1213 17.3787C26.6839 17.9413 27 18.7044 27 19.5ZM33 31.5C33 33 31.5 33 31.5 33H16.5C16.5 33 15 33 15 31.5C15 30 16.5 25.5 24 25.5C31.5 25.5 33 30 33 31.5ZM31.5 31.494C31.4985 31.125 31.269 30.015 30.252 28.998C29.274 28.02 27.4335 27 24 27C20.565 27 18.726 28.02 17.748 28.998C16.731 30.015 16.503 31.125 16.5 31.494H31.5Z" fill="#212529"/>
</svg>
