<svg width="20" height="20" viewBox="0 0 20 20" fill="none" xmlns="http://www.w3.org/2000/svg">
<path fill-rule="evenodd" clip-rule="evenodd" d="M5.80764 2.05764C5.8657 1.99944 5.93467 1.95326 6.0106 1.92175C6.08653 1.89024 6.16793 1.87402 6.25014 1.87402C6.33235 1.87402 6.41375 1.89024 6.48968 1.92175C6.56561 1.95326 6.63458 1.99944 6.69264 2.05764L14.1926 9.55764C14.2508 9.6157 14.297 9.68467 14.3285 9.7606C14.36 9.83653 14.3763 9.91793 14.3763 10.0001C14.3763 10.0824 14.36 10.1638 14.3285 10.2397C14.297 10.3156 14.2508 10.3846 14.1926 10.4426L6.69264 17.9426C6.57528 18.06 6.41611 18.1259 6.25014 18.1259C6.08417 18.1259 5.925 18.06 5.80764 17.9426C5.69028 17.8253 5.62435 17.6661 5.62435 17.5001C5.62435 17.3342 5.69028 17.175 5.80764 17.0576L12.8664 10.0001L5.80764 2.94264C5.74944 2.88458 5.70326 2.81561 5.67175 2.73968C5.64024 2.66375 5.62402 2.58235 5.62402 2.50014C5.62402 2.41793 5.64024 2.33653 5.67175 2.2606C5.70326 2.18467 5.74944 2.1157 5.80764 2.05764Z" fill="#212529"/>
</svg>
